1.9Hzhigh3min_grf.mot
version=1
nRows=17
nColumns 19
inDegrees=yes
endheader
time	1_ground_force_vx	1_ground_force_vy	1_ground_force_vz	1_ground_force_px	1_ground_force_py	1_ground_force_pz	1_ground_torque_x	1_ground_torque_y	1_ground_torque_z	2_ground_force_vx	2_ground_force_vy	2_ground_force_vz	2_ground_force_px	2_ground_force_py	2_ground_force_pz	2_ground_torque_x	2_ground_torque_y	2_ground_torque_z
            2.502500	           -0.091135	            0.719865	            0.278455	           -0.233013	            0.005581	           -0.255695	           -0.068754	            0.000357	           -0.097753	            0.376087	           -0.366609	           -0.095330	           -0.232311	            0.006130	           -0.833667	           -0.187673	           -0.066377	           -0.132108
            2.503000	            0.138733	           -0.362471	            0.456672	           -0.233013	            0.005581	           -0.255695	           -0.094486	           -0.009021	           -0.031523	            0.423540	           -0.550086	           -0.236791	           -0.232311	            0.006130	           -0.833667	           -0.150238	           -0.028430	           -0.131989
            2.503500	            0.047389	           -0.363078	            0.594467	           -0.233013	            0.005581	           -0.255695	           -0.062874	            0.046489	           -0.054071	            0.234750	           -0.181964	           -0.376182	           -0.232311	            0.006130	           -0.833667	            0.000129	           -0.046927	           -0.094420
            2.504000	            0.275852	            1.260143	            0.417431	           -0.233013	            0.005581	           -0.255695	           -0.055923	            0.000131	            0.011823	            0.329196	           -0.366443	           -0.189166	           -0.232311	            0.006130	           -0.833667	           -0.075089	           -0.028226	           -0.113170
            2.504500	            0.092106	            1.440963	            0.281092	           -0.233013	            0.005581	           -0.255695	           -0.106559	            0.018599	           -0.014596	            0.278941	            0.554799	           -0.373573	           -0.232311	            0.006130	           -0.833667	           -0.131369	           -0.038218	           -0.018929
            2.505000	            0.092402	           -0.181428	            0.274135	           -0.233013	            0.005581	           -0.255695	            0.006976	            0.018862	           -0.071213	            0.234791	           -0.182298	           -0.282325	           -0.232311	            0.006130	           -0.833667	           -0.018980	            0.038214	           -0.131809
            2.505500	            0.046427	            0.539626	            0.277341	           -0.233013	            0.005581	           -0.255695	           -0.068289	           -0.046360	            0.039502	            0.140509	            0.000842	           -0.093916	           -0.232311	            0.006130	           -0.833667	           -0.169042	           -0.009996	           -0.018812
            2.506000	            0.230336	            0.718944	            0.506938	           -0.233013	            0.005581	           -0.255695	           -0.172265	            0.009575	           -0.046178	            0.184638	            0.738107	           -0.232092	           -0.232311	            0.006130	           -0.833667	           -0.093790	           -0.038150	           -0.000095
            2.506500	            0.001073	            0.358565	            0.460105	           -0.233013	            0.005581	           -0.255695	           -0.057477	            0.046464	           -0.056065	            0.517281	           -0.550082	           -0.142975	           -0.232311	            0.006130	           -0.833667	           -0.112524	           -0.056989	           -0.037855
            2.507000	            0.321794	            0.719355	            0.414999	           -0.233013	            0.005581	           -0.255695	           -0.074578	            0.009794	           -0.080106	            0.423561	           -0.550253	           -0.189863	           -0.232311	            0.006130	           -0.833667	           -0.075243	            0.018903	           -0.075301
            2.507500	           -0.090434	           -0.002180	            0.504643	           -0.233013	            0.005581	           -0.255695	           -0.040620	            0.019019	           -0.135314	            0.236826	           -0.735078	           -0.190440	           -0.232311	            0.006130	           -0.833667	           -0.094069	            0.019171	           -0.169544
            2.508000	            0.000650	            0.179086	            0.275908	           -0.233013	            0.005581	           -0.255695	           -0.011849	            0.009251	            0.000063	            0.373264	            0.371324	           -0.468126	           -0.232311	            0.006130	           -0.833667	           -0.093977	            0.009248	           -0.037627
            2.508500	            0.092058	            1.080629	            0.233690	           -0.233013	            0.005581	           -0.255695	            0.045768	           -0.036753	           -0.033996	            0.465799	            0.738620	           -0.091427	           -0.232311	            0.006130	           -0.833667	           -0.150273	           -0.009794	           -0.056520
            2.509000	            0.184019	            1.440588	            0.372576	           -0.233013	            0.005581	           -0.255695	           -0.016923	            0.000739	           -0.142572	            0.279729	            0.369646	           -0.092662	           -0.232311	            0.006130	           -0.833667	           -0.000007	           -0.009117	           -0.094285
            2.509500	            0.367768	           -0.001699	            0.411793	           -0.233013	            0.005581	           -0.255695	           -0.074025	            0.055871	           -0.040333	            0.326538	            0.370150	           -0.186538	           -0.232311	            0.006130	           -0.833667	           -0.187639	           -0.066645	           -0.056707
            2.510000	            0.229685	            0.539858	            0.231030	           -0.233013	            0.005581	           -0.255695	            0.008532	            0.000357	           -0.046660	            0.279647	            0.370316	           -0.280374	           -0.232311	            0.006130	           -0.833667	           -0.056201	           -0.056516	           -0.113280
            2.510500	           -0.136310	            0.178076	            0.505529	           -0.233013	            0.005581	           -0.255695	           -0.040606	            0.046486	           -0.080763	            0.375984	           -0.365772	           -0.329970	           -0.232311	            0.006130	           -0.833667	           -0.075251	            0.018970	           -0.094152
